<?xml version="1.0" encoding="UTF-8" standalone="no"?><!DOCTYPE svg PUBLIC "-//W3C//DTD SVG 1.1//EN" "http://www.w3.org/Graphics/SVG/1.1/DTD/svg11.dtd"><svg width="100%" height="100%" viewBox="0 0 174 300" version="1.1" xmlns="http://www.w3.org/2000/svg" xmlns:xlink="http://www.w3.org/1999/xlink" xml:space="preserve" xmlns:serif="http://www.serif.com/" style="fill-rule:evenodd;clip-rule:evenodd;stroke-linejoin:round;stroke-miterlimit:1.41421;"><g><path d="M121.479,194.485l-48.3,-7.575c4.575,1.275 7.65,5.775 6.975,10.575l-4.05,27.75l-1.8,12.3l-8.55,57.975c-0.6,4.125 4.875,6.15 7.125,2.625l34.575,-55.575l7.5,-12.075l13.275,-21.375c0.075,-0.075 0.15,-0.225 0.225,-0.375c3.225,-5.775 -0.3,-13.2 -6.975,-14.25Z" style="fill:#0073e5;fill-rule:nonzero;"/><path d="M166.404,123.31c-0.225,-0.075 -0.45,-0.075 -0.675,-0.15l-64.125,-9.975c-5.25,-0.825 -8.85,-5.7 -8.025,-10.95l10.35,-70.275c0,-0.075 0,-0.15 0,-0.15l4.05,-27.375c0.6,-4.125 -4.875,-6.15 -7.125,-2.625l-14.4,23.4c-0.075,0.075 -0.15,0.225 -0.225,0.3l-84.75,136.575c-0.075,0.075 -0.15,0.225 -0.225,0.3c-3.3,5.85 0.225,13.275 6.9,14.325l63.9,10.05c0.225,0 0.45,0.075 0.675,0.15c0.15,0 0.3,0.075 0.45,0.075l48.3,7.575c6.675,1.05 10.2,8.475 6.9,14.25l44.1,-71.025c3.525,-5.625 0.3,-13.05 -6.075,-14.475Z" style="fill:#0389ff;fill-rule:nonzero;"/></g></svg>